# xmcd
#
# Track frame offsets: 
#        150
#        17947
#        37755
#        55370
#        71520
#        92482
#        120727
#        134937
#        149787
#        171955
#        191060
#        208760
#        243662
#
# Disc length: 4440 seconds
#
# Revision: 2
# Processed by: cddbd v1.5.2PL0 Copyright (c) Steve Scherf et al.
# Submitted via: ExactAudioCopy v0.99pb5
#
DISCID=ce11560d
DTITLE=Richard Marx - My own best enemy
DYEAR=2004
DGENRE=Pop/Rock
TTITLE0=Nothing left to say
TTITLE1=When you're gone
TTITLE2=One thing left
TTITLE3=Love goes on
TTITLE4=Ready to fly
TTITLE5=Again
TTITLE6=Colder
TTITLE7=Everything good
TTITLE8=The other side
TTITLE9=Someone special
TTITLE10=Suspicion
TTITLE11=Falling
TTITLE12=[Copy protection crap]
EXTD=
EXTT0=
EXTT1=
EXTT2=
EXTT3=
EXTT4=
EXTT5=
EXTT6=
EXTT7=
EXTT8=
EXTT9=
EXTT10=
EXTT11=
EXTT12=
PLAYORDER=
